<svg xmlns="http://www.w3.org/2000/svg" xmlns:svg="http://www.w3.org/2000/svg" xmlns:xlink="http://www.w3.org/1999/xlink" id="Layer_1" width="306" height="344.35" x="0" y="0" enable-background="new 0 0 306 344.35" version="1.1" viewBox="0 0 306 344.35" xml:space="preserve"><metadata id="metadata925"/><defs id="defs923"><linearGradient id="linearGradient1475" x1="150.961" x2="112.031" y1="192.352" y2="137.273" gradientTransform="matrix(1.094185,0,0,1.0841378,14.479959,38.196976)" gradientUnits="userSpaceOnUse" xlink:href="#linearGradient4671"/><linearGradient id="linearGradient4671"><stop style="stop-color:#ffd43b;stop-opacity:1" id="stop4673" offset="0"/><stop style="stop-color:#ffe873;stop-opacity:1" id="stop4675" offset="1"/></linearGradient><linearGradient id="linearGradient1478" x1="26.649" x2="135.665" y1="20.604" y2="114.398" gradientTransform="matrix(1.094185,0,0,1.0841378,14.479959,38.196976)" gradientUnits="userSpaceOnUse" xlink:href="#linearGradient4689"/><linearGradient id="linearGradient4689"><stop style="stop-color:#5a9fd4;stop-opacity:1" id="stop4691" offset="0"/><stop style="stop-color:#306998;stop-opacity:1" id="stop4693" offset="1"/></linearGradient></defs><g id="g1111"><path id="path902" fill="#00599C" d="M302.107,258.262c2.401-4.159,3.893-8.845,3.893-13.053V99.14c0-4.208-1.49-8.893-3.892-13.052L153,172.175 L302.107,258.262z"/><path id="path904" fill="#004482" d="M166.25,341.193l126.5-73.034c3.644-2.104,6.956-5.737,9.357-9.897L153,172.175L3.893,258.263 c2.401,4.159,5.714,7.793,9.357,9.896l126.5,73.034C147.037,345.401,158.963,345.401,166.25,341.193z"/><path id="path906" fill="#659AD2" d="M302.108,86.087c-2.402-4.16-5.715-7.793-9.358-9.897L166.25,3.156c-7.287-4.208-19.213-4.208-26.5,0 L13.25,76.19C5.962,80.397,0,90.725,0,99.14v146.069c0,4.208,1.491,8.894,3.893,13.053L153,172.175L302.108,86.087z"/></g><g id="g1106" transform="translate(1.2525336,4.3768255)"><path id="path1948" d="m 150.46003,60.536068 c -8.91555,0.04066 -17.42971,0.78684 -24.92129,2.087736 -22.06926,3.826164 -26.076175,11.834672 -26.076175,26.603722 v 19.505424 h 52.152355 v 6.50181 H 99.462565 79.890238 c -15.156927,0 -28.428765,8.94023 -32.580024,25.94758 -4.788427,19.4944 -5.00081,31.6592 0,52.01447 3.707179,15.15167 12.560407,25.94758 27.717334,25.94758 h 17.931169 v -23.38265 c 0,-16.89258 14.893723,-31.79324 32.580023,-31.79324 h 52.09157 c 14.50044,0 26.07618,-11.71644 26.07618,-26.00723 V 89.227526 c 0,-13.8699 -11.92328,-24.288897 -26.07618,-26.603722 -8.959,-1.463506 -18.25473,-2.128393 -27.17028,-2.087736 z m -28.20361,15.687848 c 5.38699,0 9.78617,4.38763 9.78617,9.78253 0,5.3758 -4.39918,9.72289 -9.78617,9.72289 -5.4063,0 -9.78616,-4.34709 -9.78616,-9.72289 0,-5.3949 4.37986,-9.78253 9.78616,-9.78253 z" style="fill:url(#linearGradient1478);fill-opacity:1;stroke-width:1.92684627"/><path id="path1950" d="m 210.21033,115.23476 v 22.72651 c 0,17.61956 -15.22195,32.44939 -32.58002,32.44939 h -52.09157 c -14.26875,0 -26.076175,11.98428 -26.076175,26.00723 v 48.73372 c 0,13.8699 12.290135,22.02802 26.076175,26.00723 16.50851,4.76359 32.3393,5.62449 52.09157,0 13.12957,-3.73051 26.07618,-11.23819 26.07618,-26.00723 v -19.50542 h -52.09157 v -6.5018 h 52.09157 26.07617 c 15.15695,0 20.80504,-10.37505 26.07618,-25.94758 5.44491,-16.0317 5.21323,-31.44876 0,-52.01447 -3.74579,-14.8073 -10.89996,-25.94758 -26.07618,-25.94758 z m -29.2977,123.41505 c 5.4063,0 9.78616,4.34711 9.78616,9.72288 0,5.3949 -4.37986,9.78254 -9.78616,9.78254 -5.38699,0 -9.78617,-4.38764 -9.78617,-9.78254 0,-5.37577 4.39918,-9.72288 9.78617,-9.72288 z" style="fill:url(#linearGradient1475);fill-opacity:1;stroke-width:1.92684627"/></g><g id="g914" transform="translate(-55.500836,80.518635)"><polygon id="polygon912" points="232.334 177.841 232.334 189.175 243.666 189.175 243.666 177.841 255 177.841 255 166.508 243.666 166.508 243.666 155.175 232.334 155.175 232.334 166.508 221 166.508 221 177.841" style="fill:#fff"/></g><g id="g918" transform="translate(-156.65705,-81.907258)"><polygon id="polygon916" points="286.166 166.508 286.166 155.175 274.834 155.175 274.834 166.508 263.5 166.508 263.5 177.841 274.834 177.841 274.834 189.175 286.166 189.175 286.166 177.841 297.5 177.841 297.5 166.508" style="fill:#fff"/></g></svg>