<svg xmlns="http://www.w3.org/2000/svg" xmlns:xlink="http://www.w3.org/1999/xlink" width="19" height="19" version="1.1" viewBox="0 0 19 19"><title>users-24px-outline_circle-08</title><desc>Created with Sketch.</desc><g id="Mainpage" fill="none" fill-rule="evenodd" stroke="none" stroke-width="1"><g id="Mainpage_Layout_V4_Megamenu" stroke="#09102B" stroke-width="2" transform="translate(-1271.000000, -98.000000)"><g id="Nav" transform="translate(151.000000, 20.000000)"><g id="users-24px-outline_circle-08" transform="translate(1121.000000, 79.000000)"><path id="Shape" stroke-linecap="square" d="M8.5,11.5909091 L8.5,11.5909091 C6.79304545,11.5909091 5.40909091,10.2069545 5.40909091,8.5 L5.40909091,6.95454545 C5.40909091,5.24759091 6.79304545,3.86363636 8.5,3.86363636 L8.5,3.86363636 C10.2069545,3.86363636 11.5909091,5.24759091 11.5909091,6.95454545 L11.5909091,8.5 C11.5909091,10.2069545 10.2069545,11.5909091 8.5,11.5909091 Z"/><path id="Shape" d="M13.2151818,15.5735455 C12.3651818,14.5736364 11.0747273,13.9090909 9.65909091,13.9090909 L7.34090909,13.9090909 C5.91368182,13.9090909 4.63713636,14.5543182 3.78636364,15.5681364"/><circle id="Oval" cx="8.5" cy="8.5" r="8.5" stroke-linecap="square"/></g></g></g></g></svg>